<?xml version="1.0" encoding="utf-8"?>
<!-- Generator: Adobe Illustrator 20.1.0, SVG Export Plug-In . SVG Version: 6.00 Build 0)  -->
<svg version="1.1" id="Layer_1" xmlns="http://www.w3.org/2000/svg" xmlns:xlink="http://www.w3.org/1999/xlink" x="0px" y="0px"
	 viewBox="0 0 86.3 79" style="enable-background:new 0 0 86.3 79;" xml:space="preserve">
<style type="text/css">
	.st0{fill:#75D277;}
	.st1{fill:#61B561;}
	.st2{fill:#676869;}
	.st3{fill:#FFFFFF;}
</style>
<g>
	<g>
		<path class="st0" d="M39.9,73.4L39.9,73.4C21.2,73.4,6,58.2,6,39.5v0C6,20.8,21.2,5.6,39.9,5.6h0c18.7,0,33.9,15.2,33.9,33.9v0
			C73.7,58.2,58.6,73.4,39.9,73.4z"/>
	</g>
	<path class="st1" d="M67.5,24.6c-0.4,0-0.8,0-1,0.1c-0.8-0.1-1.8-0.1-2.2,0c-0.4,0-0.8-0.1-1.2-0.1c-8,0-14.6,6.5-14.6,14.6
		s6.5,14.6,14.6,14.6c0.4,0,0.8,0,1-0.1c0.8,0.1,1.8,0.1,2.2,0c0.4,0,0.8,0.1,1.2,0.1c8,0,14.6-6.5,14.6-14.6S75.6,24.6,67.5,24.6z"
		/>
	<g>
		<g>
			<path class="st1" d="M14.7,39.2C14.7,21.6,26.8,7.3,44,5.8c-1-0.1-2-0.2-3-0.2c-18.5,0-33.6,15-33.6,33.6s15,33.6,33.6,33.6
				c1,0,2-0.1,3-0.2C26.8,71.1,14.7,56.7,14.7,39.2z"/>
		</g>
	</g>
	<g>
		<path class="st2" d="M39.9,76.1c-20.2,0-36.6-16.4-36.6-36.6S19.7,2.9,39.9,2.9s36.6,16.4,36.6,36.6S60.1,76.1,39.9,76.1z
			 M39.9,8.4c-17.2,0-31.1,14-31.1,31.1s14,31.1,31.1,31.1S71,56.7,71,39.5S57,8.4,39.9,8.4z"/>
	</g>
	<g>
		<g>
			<circle class="st3" cx="67.5" cy="39.2" r="13.6"/>
			<path class="st2" d="M67.5,54.8c-8.6,0-15.5-7-15.5-15.5s7-15.5,15.5-15.5s15.5,7,15.5,15.5S76.1,54.8,67.5,54.8z M67.5,27.5
				c-6.5,0-11.7,5.3-11.7,11.7S61.1,51,67.5,51s11.7-5.3,11.7-11.7S74,27.5,67.5,27.5z"/>
		</g>
	</g>
	<path class="st1" d="M29.7,24.6c-0.4,0-0.8,0-1,0.1c-0.8-0.1-1.8-0.1-2.2,0c-0.4,0-0.8-0.1-1.2-0.1c-8,0-14.6,6.5-14.6,14.6
		s6.5,14.6,14.6,14.6c0.4,0,0.8,0,1-0.1c0.8,0.1,1.8,0.1,2.2,0c0.4,0,0.8,0.1,1.2,0.1c8,0,14.6-6.5,14.6-14.6S37.8,24.6,29.7,24.6z"
		/>
	<g>
		<g>
			<circle class="st3" cx="29.7" cy="39.2" r="13.6"/>
			<path class="st2" d="M29.7,54.8c-8.6,0-15.5-7-15.5-15.5s7-15.5,15.5-15.5s15.5,7,15.5,15.5S38.3,54.8,29.7,54.8z M29.7,27.5
				c-6.5,0-11.7,5.3-11.7,11.7S23.2,51,29.7,51s11.7-5.3,11.7-11.7S36.2,27.5,29.7,27.5z"/>
		</g>
	</g>
	<g>
		<g>
			<ellipse class="st2" cx="27.5" cy="39.3" rx="5.7" ry="5.7"/>
		</g>
		<g>
			<ellipse class="st3" cx="28.7" cy="37.8" rx="1.8" ry="1.8"/>
		</g>
	</g>
	<g>
		<g>
			<ellipse class="st2" cx="65.1" cy="39.3" rx="5.7" ry="5.7"/>
		</g>
		<g>
			<ellipse class="st3" cx="66.3" cy="37.8" rx="1.8" ry="1.8"/>
		</g>
	</g>
</g>
</svg>
